<svg version="1" xmlns="http://www.w3.org/2000/svg" width="933.333" height="933.333" viewBox="0 0 700 700"><path d="M329.8.5c-.2.1-4.1.5-8.8.9-10 .7-22.5 2.2-29.5 3.6-2.7.5-6.1 1.2-7.5 1.4-43.1 7.9-90.8 27.3-127.5 51.9-6.9 4.6-29.7 21.7-30.5 22.8-.3.3-2.5 2.3-5 4.4-8.5 7-22 20.5-36.1 36.1-21 23.2-45.2 62.6-58.5 95.2-6.2 15.1-14.6 41.1-16.9 52-.2.9-.8 3.7-1.4 6.2-1.1 4.9-1.3 6.3-3.5 19.5-3.4 20.4-4 30.2-4 57 0 23.3 1.1 37.8 3.9 54.5.6 3.2 2.4 12.9 2.9 15.5 3 15.1 11.2 42.5 17.7 58.7 4.8 12.2 13.9 31.1 19.6 40.6 2.4 4.1 4.3 7.6 4.3 7.8 0 .2 3.3 5.5 7.3 11.7 48 73.6 121.2 126.4 205.4 148.2 7.2 1.9 14.2 3.6 15.5 3.9 1.3.2 5 .9 8.3 1.5 3.3.6 7.1 1.3 8.5 1.6 1.4.3 5.2.8 8.5 1.1 3.3.3 6.3.8 6.6.9 1.5 1 22.7 2 40.9 2 18.8 0 34.1-.8 43-2.1 14.4-2.1 29.5-4.8 34.5-6.1 3.3-.8 6.7-1.6 7.5-1.8 10.9-2.2 38.8-11.7 54.9-18.7 12.1-5.3 30.8-14.8 35.3-17.9 1.4-1.1 2.9-1.9 3.3-1.9 2.4 0 38.3-25.7 49.5-35.5 11.8-10.3 29.3-27.8 36.5-36.5 2.1-2.5 4.1-4.7 4.4-5 .4-.3 4.5-5.5 9.1-11.5 33.2-43.6 54.7-91.5 65.4-145.6 1.4-7 2.8-15.5 3.2-19 .3-3.5.8-6.7 1-7 .9-1.7 1.9-21.4 1.8-39.9 0-18.8-.6-33.1-1.9-42-.3-1.9-.7-5.6-1-8.1-.3-2.5-.7-5.4-.9-6.5-.2-1-1.1-6-2.1-10.9-9.8-52.5-33.7-105.2-67-148-4.3-5.5-8.1-10.2-8.4-10.5-.3-.3-3.5-3.8-7-7.8C563.2 62.6 494.7 22.8 422.3 7.6 412.5 5.5 398 3.3 383 1.5c-5.4-.7-52.6-1.6-53.2-1z"/></svg>